<?xml version="1.0" encoding="UTF-8" standalone="no"?>
<svg
   xmlns:dc="http://purl.org/dc/elements/1.1/"
   xmlns:cc="http://creativecommons.org/ns#"
   xmlns:rdf="http://www.w3.org/1999/02/22-rdf-syntax-ns#"
   xmlns:svg="http://www.w3.org/2000/svg"
   xmlns="http://www.w3.org/2000/svg"
   id="svg8"
   version="1.1"
   viewBox="0 0 210 297"
   height="297mm"
   width="210mm">
  <defs
     id="defs2" />
  <metadata
     id="metadata5">
    <rdf:RDF>
      <cc:Work
         rdf:about="">
        <dc:format>image/svg+xml</dc:format>
        <dc:type
           rdf:resource="http://purl.org/dc/dcmitype/StillImage" />
        <dc:title></dc:title>
      </cc:Work>
    </rdf:RDF>
  </metadata>
  <g
     id="layer1">
    <flowRoot
       style="fill:black;fill-opacity:1;stroke:none;font-family:sans-serif;font-style:normal;font-weight:normal;font-size:18.66666667px;line-height:1.25;letter-spacing:0px;word-spacing:0px;"
       id="flowRoot3713"
       xml:space="preserve"><flowRegion
         style="font-size:18.66666667px;"
         id="flowRegion3715"><rect
           style="font-size:18.66666667px;"
           y="42.519684"
           x="37.142857"
           height="174.28572"
           width="231.42857"
           id="rect3717" /></flowRegion><flowPara
         id="flowPara3719"></flowPara></flowRoot>    <g
       id="text3723"
       style="font-style:normal;font-weight:normal;font-size:4.58611107px;line-height:1.25;font-family:sans-serif;letter-spacing:0px;word-spacing:0px;fill:#000000;fill-opacity:1;stroke:none;stroke-width:0.26458332"
       aria-label="L R">
      <path
         id="path3725"
         style="font-size:11.28888893px;stroke-width:0.26458332"
         d="m 16.038003,5.5716941 h 1.113455 v 7.2925779 h 4.007335 v 0.937066 h -5.12079 z" />
      <path
         id="path3727"
         style="font-size:11.28888893px;stroke-width:0.26458332"
         d="m 29.818384,9.9428312 q 0.35829,0.1212678 0.694532,0.5181428 0.341753,0.396875 0.683507,1.091406 l 1.129991,2.248958 h -1.196137 l -1.052821,-2.111154 q -0.4079,-0.826823 -0.79375,-1.096919 -0.380339,-0.270095 -1.041797,-0.270095 h -1.212674 v 3.478168 H 25.91578 V 5.5716941 h 2.513542 q 1.411111,0 2.105642,0.5898003 0.694531,0.5898004 0.694531,1.7804254 0,0.7772135 -0.363802,1.2898437 -0.35829,0.5126302 -1.047309,0.7110677 z M 27.029235,6.4867114 v 2.921441 h 1.400087 q 0.804774,0 1.212673,-0.3693142 0.413412,-0.3748264 0.413412,-1.0969184 0,-0.722092 -0.413412,-1.0858941 -0.407899,-0.3693143 -1.212673,-0.3693143 z" />
    </g>
    <g
       id="text3732"
       style="font-style:normal;font-weight:normal;font-size:4.58611107px;line-height:1.25;font-family:sans-serif;letter-spacing:0px;word-spacing:0px;fill:#000000;fill-opacity:1;stroke:none;stroke-width:0.26458332"
       aria-label="LR">
      <path
         id="path3734"
         style="stroke-width:0.26458332"
         d="m 40.704565,9.6075977 h 0.452341 v 2.9626093 h 1.62798 v 0.380684 h -2.080321 z" />
      <path
         id="path3736"
         style="stroke-width:0.26458332"
         d="m 44.842814,11.383372 q 0.145555,0.04927 0.282153,0.210495 0.138837,0.161231 0.277675,0.443384 l 0.459059,0.91364 H 45.37577 L 44.948061,12.093234 Q 44.782352,11.757337 44.6256,11.647611 44.471088,11.537885 44.20237,11.537885 h -0.492648 v 1.413006 H 43.257381 V 9.6075977 h 1.021126 q 0.573264,0 0.855417,0.2396063 0.282153,0.239606 0.282153,0.723298 0,0.315743 -0.147794,0.523999 -0.145555,0.208256 -0.425469,0.288871 z M 43.709722,9.9793235 v 1.1868355 h 0.568785 q 0.326939,0 0.492649,-0.150034 0.167948,-0.152273 0.167948,-0.445623 0,-0.29335 -0.167948,-0.441145 -0.16571,-0.1500335 -0.492649,-0.1500335 z" />
    </g>
  </g>
</svg>
