<?xml version="1.0" encoding="UTF-8" standalone="no"?>
<svg
   xmlns:freecad="http://www.freecadweb.org/wiki/index.php?title=Svg_Namespace"
   xmlns:dc="http://purl.org/dc/elements/1.1/"
   xmlns:cc="http://creativecommons.org/ns#"
   xmlns:rdf="http://www.w3.org/1999/02/22-rdf-syntax-ns#"
   xmlns:svg="http://www.w3.org/2000/svg"
   xmlns="http://www.w3.org/2000/svg"
   xmlns:sodipodi="http://sodipodi.sourceforge.net/DTD/sodipodi-0.dtd"
   xmlns:inkscape="http://www.inkscape.org/namespaces/inkscape"
   version="1.1"
   width="297mm"
   height="210mm"
   viewBox="0 0 297 210"
   id="svg1137"
   sodipodi:docname="radio_negro_2.svg"
   inkscape:version="0.92.4 (unknown)">
  <metadata
     id="metadata1143">
    <rdf:RDF>
      <cc:Work
         rdf:about="">
        <dc:format>image/svg+xml</dc:format>
        <dc:type
           rdf:resource="http://purl.org/dc/dcmitype/StillImage" />
        <dc:title></dc:title>
      </cc:Work>
    </rdf:RDF>
  </metadata>
  <defs
     id="defs1141" />
  <sodipodi:namedview
     pagecolor="#ffffff"
     bordercolor="#666666"
     borderopacity="1"
     objecttolerance="10"
     gridtolerance="10"
     guidetolerance="10"
     inkscape:pageopacity="0"
     inkscape:pageshadow="2"
     inkscape:window-width="1680"
     inkscape:window-height="1026"
     id="namedview1139"
     showgrid="false"
     inkscape:zoom="1.1573766"
     inkscape:cx="522.52072"
     inkscape:cy="392.33462"
     inkscape:window-x="1680"
     inkscape:window-y="24"
     inkscape:window-maximized="1"
     inkscape:current-layer="svg1137" />
  <!-- Working space 10 10 287 200 -->
  <!-- Title block 107 162 287 200 -->
  <g
     id="g1074"
     style="display:inline">
    <rect
       id="drawing-border"
       style="fill:none;stroke:#000000;stroke-width:0.34999999;stroke-miterlimit:4"
       width="277"
       height="190"
       x="10"
       y="10" />
    <!-- width-20, height-20 -->
    <g
       transform="translate(87,-65)"
       id="g1072">
      <!-- A4 Portrait based for other formats width-210, height-297 -->
      <!--        page       rect   translation
			               w    h    rw   rh   tx   ty
			        A4-P  210  297  180  277    0    0
			        A3-L  420  297  390  277  210    0
			        A2-L  594  420  564  400  384  123
			        A1-L  841  594  811  574  631  297
			        A0-L 1189  841 1159  821  979  544
			-->
      <g
         id="titleblock-structure"
         style="fill:none;stroke:#000000;stroke-width:0.34999999;stroke-miterlimit:4">
        <rect
           width="180"
           height="38"
           x="20"
           y="227"
           id="rect980" />
        <path
           d="M 20,238 H 200"
           id="path982"
           inkscape:connector-curvature="0" />
        <path
           d="m 80,227 v 11"
           id="path984"
           inkscape:connector-curvature="0" />
        <path
           d="m 140,227 v 38"
           id="path986"
           inkscape:connector-curvature="0" />
        <path
           d="m 160,227 v 11"
           id="path988"
           inkscape:connector-curvature="0" />
        <path
           d="m 180,227 v 11"
           id="path990"
           inkscape:connector-curvature="0" />
        <path
           d="m 140,254 h 60"
           id="path992"
           inkscape:connector-curvature="0" />
        <path
           d="m 180,254 v 11"
           id="path994"
           inkscape:connector-curvature="0" />
      </g>
      <g
         id="titleblock-text-non-editable"
         style="font-size:3px;font-family:osifont;text-anchor:start;fill:#000000"
         xml:space="preserve">
				<text
   x="21"
   y="230.5"
   id="text997">Created by:</text>

				<text
   x="81"
   y="230.5"
   id="text999">Title:</text>

				<text
   x="21"
   y="241.5"
   id="text1001">Supplementary information:</text>

				<text
   x="141"
   y="230.5"
   id="text1003">Size:</text>

				<text
   x="161"
   y="230.5"
   id="text1005">Sheet:</text>

				<text
   x="181"
   y="230.5"
   id="text1007">Scale:</text>

				<text
   x="141"
   y="241.5"
   id="text1009">Part number:</text>

				<text
   x="141"
   y="249.5"
   id="text1011">Drawing no.:</text>

				<text
   x="141"
   y="257.5"
   id="text1013">Date:</text>

				<text
   x="181"
   y="257.5"
   id="text1015">Revision:</text>

			</g>      <g
         id="titleblock-text-editable"
         style="font-size:5px;font-family:osifont;text-anchor:middle;fill:#000000"
         xml:space="preserve">
				<text
   freecad:editable="AUTHOR NAME"
   x="50"
   y="236"
   id="text1020"><tspan
     id="tspan1018">Ernesto Aides</tspan></text>

				<text
   freecad:editable="DRAWING TITLE"
   x="110"
   y="236"
   id="text1024"><tspan
     id="tspan1022">Radio Panel version V</tspan></text>

				<text
   freecad:editable="SI-1"
   x="80"
   y="247"
   id="text1028"><tspan
     id="tspan1026" /></text>

				<text
   freecad:editable="FreeCAD DRAWING"
   x="80"
   y="254"
   id="text1032"><tspan
     id="tspan1030" /></text>

				<text
   freecad:editable="SI-3"
   x="80"
   y="261"
   id="text1036"><tspan
     id="tspan1034" /></text>

				<text
   freecad:editable="FC-SI"
   x="150"
   y="236"
   id="text1040"><tspan
     id="tspan1038">A4</tspan></text>

				<text
   freecad:editable="FC-SH"
   x="170"
   y="236"
   id="text1044"><tspan
     id="tspan1042">X / Y</tspan></text>

				<text
   freecad:editable="FC-SC"
   x="190"
   y="236"
   id="text1048"><tspan
     id="tspan1046">1:1</tspan></text>

				<text
   freecad:editable="PN"
   x="180"
   y="244"
   id="text1052"><tspan
     id="tspan1050" /></text>

				<text
   freecad:editable="DN"
   x="180"
   y="252"
   id="text1056"><tspan
     id="tspan1054" /></text>

				<text
   freecad:editable="FC-DATE"
   x="160"
   y="263"
   id="text1060"><tspan
     id="tspan1058">08/07/2019</tspan></text>

				<text
   freecad:editable="FC-REV"
   x="190"
   y="263"
   id="text1064"><tspan
     id="tspan1062">REV C</tspan></text>

			</g>      <!-- Set display:none to hide FreeCAD Logo -->
      <g
         style="display:inline;fill:none;fill-rule:evenodd;stroke:#000000;stroke-width:0.34999999"
         id="freecad-logo"
         transform="translate(128.5,254)">
        <path
           d="m 0.1524,0.15254 v 8.8549 h 1.9744 v -3.4652 h 1.396 v -1.3661 h -1.396 v -1.4745 h 3.4391 v -2.5441 z"
           id="path1067"
           inkscape:connector-curvature="0" />
        <path
           d="M 7.7927,3.4504 7.28555,3.2744 6.80168,2.0378 6.04053,2.0778 5.69335,3.3565 5.20745,3.58919 3.99555,3.05904 3.48367,3.62786 4.14259,4.77636 3.96253,5.28203 2.72593,5.7659 l 0.044064,0.76263 1.2787,0.34718 0.23269,0.4859 -0.53421,1.2104 0.56882,0.51188 1.1485,-0.65891 0.50973,0.18155 0.4798,1.2351 0.7667,-0.04258 0.34311,-1.2802 0.4859,-0.23269 1.2145,0.5357 0.51188,-0.56882 -0.65891,-1.1485 0.17748,-0.51122 1.2351,-0.4798 L 10.491274,5.34831 9.211074,5.0052 8.978384,4.5193 9.510014,3.3033 8.941204,2.79146 Z M 7.2212,4.6748 7.45696,4.81159 7.66122,4.99678 7.82475,5.21779 7.94238,5.46351 8.01154,5.7284 8.023,5.99986 7.98379,6.27125 7.89431,6.52889 7.75197,6.76723 7.57233,6.9689 7.35132,7.13243 7.1056,7.25006 6.84071,7.31922 6.56776,7.33475 l -0.2719,-0.04 -0.2576,-0.089 -0.2383,-0.143 -0.2002,-0.183 -0.165,-0.217 -0.1177,-0.246 -0.0676,-0.269 -0.0156,-0.273 L 5.273066,5.60335 5.36255,5.34571 5.5034,5.11144 5.68453,4.9057 5.90554,4.74218 6.15126,4.62455 6.42021,4.55687 6.69168,4.54541 6.96307,4.58462 7.22071,4.6741 Z"
           id="path1069"
           inkscape:connector-curvature="0" />
      </g>
    </g>
  </g>
  <path
     style="display:inline;fill:#000000;stroke:#ffffff;stroke-width:1.72804606;stroke-linecap:butt;stroke-linejoin:miter;stroke-miterlimit:4;stroke-dasharray:none"
     d="M 203.02646,324.94322 V 193.1797 H 561.164 919.30155 V 324.94322 456.70673 H 561.164 203.02646 Z m 18.08268,123.58725 c 4.26437,-2.20519 4.95972,-8.31248 1.33421,-11.71847 -4.79342,-4.50317 -12.54271,-1.10558 -12.47723,5.47052 0.0594,5.96184 5.64255,9.09236 11.14302,6.24795 z m 689.15944,-0.85671 c 2.96025,-2.96025 2.93078,-8.04934 -0.0629,-10.86176 -3.13513,-2.94529 -7.76523,-2.79935 -10.45663,0.32958 -2.8458,3.30845 -2.67283,6.97702 0.47752,10.12736 3.22249,3.22248 7.06927,3.37756 10.042,0.40482 z M 310.55553,418.33085 c 1.60973,-0.67259 3.34689,-2.00787 3.86035,-2.96728 1.21305,-2.2666 1.21305,-19.59387 0,-21.86047 -1.82526,-3.41053 -5.83139,-4.19017 -21.53103,-4.19017 -15.69964,0 -19.70577,0.77964 -21.53103,4.19017 -0.51346,0.95941 -0.92492,5.94966 -0.91436,11.08944 0.0297,14.42362 0.63213,14.82712 22.25714,14.90643 11.02522,0.0404 15.69792,-0.2652 17.85893,-1.16812 z m 100.04432,-3.66848 c 7.00454,-3.52829 7.71556,-15.47031 1.17619,-19.75506 -5.52986,-3.62332 -11.98934,-3.05317 -16.17509,1.42768 -5.93506,6.35351 -3.40114,16.43012 4.85477,19.30584 3.62,1.26093 6.19065,1.01297 10.14413,-0.97846 z m 57.04353,-1.84792 c 8.46645,-8.46645 0.0627,-23.14768 -11.47209,-20.04168 -3.88544,1.04624 -7.76642,5.02778 -8.56095,8.78278 -2.50584,11.84275 11.54973,19.74221 20.03304,11.2589 z m 52.81382,1.66805 c 3.00651,-1.69823 5.71387,-6.45974 5.71387,-10.04916 0,-6.20139 -5.73544,-11.89996 -11.97694,-11.89996 -9.02345,0 -14.57131,8.48019 -11.05351,16.89584 1.42241,3.40285 3.03487,4.79815 7.25384,6.27691 3.56758,1.25045 6.26291,0.9227 10.06274,-1.22363 z m 55.97883,-0.68214 c 7.11842,-6.44207 4.58889,-18.5386 -4.39539,-21.01927 -8.71728,-2.40696 -17.42529,6.13692 -14.8876,14.60699 2.45871,8.20645 13.31233,11.81566 19.28299,6.41228 z m 54.00695,0.54038 c 2.45606,-1.53383 5.45901,-6.94863 5.45901,-9.84346 0,-3.49301 -2.96356,-8.51258 -6.11118,-10.35086 -3.45412,-2.01731 -9.54889,-2.07172 -12.53984,-0.11198 -4.98247,3.26464 -6.99395,10.70029 -4.30256,15.90487 3.18945,6.1677 11.37053,8.22597 17.49457,4.40143 z m 54.63412,0.0686 c 4.9075,-2.62641 6.74795,-10.97846 3.56832,-16.1932 -2.34172,-3.84054 -5.37416,-5.59246 -9.79575,-5.65931 -4.84599,-0.0733 -8.94033,2.31129 -11.06105,6.44196 -2.11856,4.12646 -2.07973,7.01932 0.14739,10.98194 3.59053,6.3885 10.25952,8.11151 17.14109,4.42861 z m 102.698,-24.68653 c 17.00163,-5.04893 22.98995,-26.17727 11.09266,-39.13775 -9.37968,-10.21789 -24.60004,-10.74083 -34.51555,-1.1859 -5.45156,5.25331 -7.02279,9.05131 -7.04002,17.01719 -0.0133,6.15569 0.2787,7.42991 2.66825,11.64281 3.26639,5.75883 7.41505,9.25091 13.47831,11.34518 5.63756,1.94725 8.60907,2.01336 14.31635,0.31847 z M 579.66171,331.03216 c 3.68144,-1.90375 4.60572,-5.19385 4.26553,-15.18374 -0.28502,-8.37006 -0.40917,-8.86496 -2.72288,-10.85384 -2.38934,-2.05394 -2.6758,-2.08395 -19.89629,-2.08395 -19.12835,0 -20.12438,0.22949 -22.14261,5.10194 -0.68155,1.64541 -0.95918,5.59276 -0.76709,10.90663 0.29485,8.1568 0.35902,8.37972 3.12274,10.84807 l 2.8217,2.52014 h 16.44572 c 12.69126,0 16.99989,-0.28658 18.87318,-1.25528 z m -91.93967,-79.5309 v -23.32862 h -91.15443 -91.15443 l -0.23081,22.35822 c -0.16325,15.81342 0.0584,22.70668 0.7571,23.5486 0.82981,0.99985 15.45597,1.15516 91.38524,0.97039 l 90.39733,-0.21997 z m 340.42508,0 v -23.32862 h -91.15443 -91.15443 l -0.23101,22.45041 c -0.12704,12.34772 -0.0414,22.94459 0.19042,23.54859 0.33789,0.88054 18.44909,1.05459 91.38543,0.87821 l 90.96402,-0.21997 z M 221.96867,213.40744 c 3.76307,-3.16642 3.76307,-7.91227 0,-11.07869 -1.4621,-1.23027 -3.57072,-2.23686 -4.68583,-2.23686 -1.11511,0 -3.22374,1.00659 -4.68584,2.23686 -3.76307,3.16642 -3.76307,7.91227 0,11.07869 1.4621,1.23027 3.57073,2.23686 4.68584,2.23686 1.11511,0 3.22373,-1.00659 4.68583,-2.23686 z m 686.37339,1.23171 c 2.8645,-1.52565 3.99234,-3.43848 3.99234,-6.77105 0,-4.4629 -3.29401,-7.77621 -7.7309,-7.77621 -2.86213,0 -6.90253,4.5518 -6.90253,7.77621 0,1.8598 0.80188,3.52687 2.52561,5.2506 2.69569,2.69569 5.07271,3.14103 8.11548,1.52045 z"
     id="path1885"
     inkscape:connector-curvature="0"
     transform="scale(0.26458333)" />
  <g
     id="Ortho_0_0"
     transform="translate(142.5,140)"
     style="display:inline">
    <g
       transform="scale(1,-1)"
       id="g1134"
       style="fill:none;stroke:#000000;stroke-width:0.34999999;stroke-linecap:butt;stroke-linejoin:miter">
      <path
         id="1"
         d="M -89,19 V 89"
         inkscape:connector-curvature="0" />
      <path
         id="2"
         d="M -89,89 H 101"
         inkscape:connector-curvature="0" />
      <path
         id="3"
         d="M -89,19 H 101"
         inkscape:connector-curvature="0" />
      <path
         id="4"
         d="M 101,19 V 89"
         inkscape:connector-curvature="0" />
      <path
         id="5"
         d="m -61.5,67.5 h 48"
         inkscape:connector-curvature="0" />
      <path
         id="6"
         d="m -13.5,79.5 v -12"
         inkscape:connector-curvature="0" />
      <path
         id="7"
         d="m -61.5,79.5 h 48"
         inkscape:connector-curvature="0" />
      <path
         id="8"
         d="m -61.5,79.5 v -12"
         inkscape:connector-curvature="0" />
      <path
         id="9"
         d="m 28.5,79.5 v -12"
         inkscape:connector-curvature="0" />
      <path
         id="10"
         d="m 28.5,67.5 h 48"
         inkscape:connector-curvature="0" />
      <path
         id="11"
         d="m 76.5,79.5 v -12"
         inkscape:connector-curvature="0" />
      <path
         id="12"
         d="m 28.5,79.5 h 48"
         inkscape:connector-curvature="0" />
      <circle
         cx="64.150002"
         cy="43"
         r="6.1999998"
         id="circle1088" />
      <path
         id="14"
         d="M 2.2,59.7 H 9.8"
         inkscape:connector-curvature="0" />
      <path
         d="m 0.2,57.7 a 2,2 0 0 0 2,2"
         id="path1091"
         inkscape:connector-curvature="0" />
      <path
         d="m 9.8,59.7 a 2,2 0 0 0 2,-2"
         id="path1093"
         inkscape:connector-curvature="0" />
      <path
         id="17"
         d="m 0.2,54.3 v 3.4"
         inkscape:connector-curvature="0" />
      <path
         id="18"
         d="m 11.8,54.3 v 3.4"
         inkscape:connector-curvature="0" />
      <path
         d="m 2.2,52.3 a 2,2 0 0 0 -2,2"
         id="path1097"
         inkscape:connector-curvature="0" />
      <path
         d="m 11.8,54.3 a 2,2 0 0 0 -2,-2"
         id="path1099"
         inkscape:connector-curvature="0" />
      <path
         id="21"
         d="M 2.2,52.3 H 9.8"
         inkscape:connector-curvature="0" />
      <path
         id="22"
         d="m -68.8,36.7 h 7.6"
         inkscape:connector-curvature="0" />
      <path
         d="m -70.8,34.7 a 2,2 0 0 0 2,2"
         id="path1103"
         inkscape:connector-curvature="0" />
      <path
         d="m -61.2,36.7 a 2,2 0 0 0 2,-2"
         id="path1105"
         inkscape:connector-curvature="0" />
      <path
         id="25"
         d="m -70.8,31.3 v 3.4"
         inkscape:connector-curvature="0" />
      <path
         id="26"
         d="m -59.2,31.3 v 3.4"
         inkscape:connector-curvature="0" />
      <path
         d="m -68.8,29.3 a 2,2 0 0 0 -2,2"
         id="path1109"
         inkscape:connector-curvature="0" />
      <path
         d="m -59.2,31.3 a 2,2 0 0 0 -2,-2"
         id="path1111"
         inkscape:connector-curvature="0" />
      <path
         id="29"
         d="m -68.8,29.3 h 7.6"
         inkscape:connector-curvature="0" />
      <circle
         cx="-6.5"
         cy="33"
         r="3"
         id="circle1114" />
      <circle
         cx="37"
         cy="33"
         r="3"
         id="circle1116" />
      <circle
         cx="8"
         cy="33"
         r="3"
         id="circle1118" />
      <circle
         cx="22.5"
         cy="33"
         r="3"
         id="circle1120" />
      <circle
         cx="-21"
         cy="33"
         r="3"
         id="circle1122" />
      <circle
         cx="-35.5"
         cy="33"
         r="3"
         id="circle1124" />
      <circle
         cx="-85"
         cy="23"
         r="1.8"
         id="circle1126" />
      <circle
         cx="-85"
         cy="85"
         r="1.8"
         id="circle1128" />
      <circle
         cx="97"
         cy="23"
         r="1.8"
         id="circle1130" />
      <circle
         cx="97"
         cy="85"
         r="1.8"
         id="circle1132" />
    </g>
  </g>
  <rect
     style="display:inline;opacity:1;fill:#000000;stroke:#ffffff;stroke-width:0;stroke-linecap:butt;stroke-linejoin:miter;stroke-miterlimit:4;stroke-dasharray:none"
     id="rect4978"
     width="190"
     height="70"
     x="53.5"
     y="51.000004"
     ry="0" />
  <rect
     style="display:inline;opacity:1;fill:#000000;stroke:#ffffff;stroke-width:0.55613637;stroke-linecap:butt;stroke-linejoin:miter;stroke-miterlimit:4;stroke-dasharray:none"
     id="rect992-3"
     width="11.747589"
     height="7.5089941"
     x="71.628036"
     y="103.25411"
     rx="2.1933451"
     ry="2.0523429"
     sodipodi:insensitive="true" />
  <rect
     style="display:inline;opacity:1;fill:#000000;stroke:#ffffff;stroke-width:0.55613637;stroke-linecap:butt;stroke-linejoin:miter;stroke-miterlimit:4;stroke-dasharray:none"
     id="rect992-3-3"
     width="11.747589"
     height="7.5089941"
     x="142.62831"
     y="80.243935"
     rx="2.1933451"
     ry="2.0523429"
     sodipodi:insensitive="true" />
  <circle
     style="display:inline;opacity:1;fill:#000000;stroke:#ffffff;stroke-width:0.81995875;stroke-linecap:butt;stroke-linejoin:miter;stroke-miterlimit:4;stroke-dasharray:none"
     id="path4873"
     cx="106.99476"
     cy="106.98338"
     r="3.2115047"
     sodipodi:insensitive="true" />
  <circle
     style="display:inline;opacity:1;fill:#000000;stroke:#ffffff;stroke-width:0.81995875;stroke-linecap:butt;stroke-linejoin:miter;stroke-miterlimit:4;stroke-dasharray:none"
     id="path4873-3"
     cx="121.48707"
     cy="106.97238"
     r="3.2115045"
     sodipodi:insensitive="true" />
  <circle
     style="display:inline;opacity:1;fill:#000000;stroke:#ffffff;stroke-width:0.81995875;stroke-linecap:butt;stroke-linejoin:miter;stroke-miterlimit:4;stroke-dasharray:none"
     id="path4873-5"
     cx="135.97171"
     cy="106.99638"
     r="3.2115045"
     sodipodi:insensitive="true" />
  <circle
     style="display:inline;opacity:1;fill:#000000;stroke:#ffffff;stroke-width:0.81995875;stroke-linecap:butt;stroke-linejoin:miter;stroke-miterlimit:4;stroke-dasharray:none"
     id="path4873-3-6"
     cx="150.46402"
     cy="106.98638"
     r="3.2115042"
     sodipodi:insensitive="true" />
  <circle
     style="display:inline;opacity:1;fill:#000000;stroke:#ffffff;stroke-width:0.81995875;stroke-linecap:butt;stroke-linejoin:miter;stroke-miterlimit:4;stroke-dasharray:none"
     id="path4873-2"
     cx="164.98494"
     cy="106.99638"
     r="3.2115045"
     sodipodi:insensitive="true" />
  <circle
     style="display:inline;opacity:1;fill:#000000;stroke:#ffffff;stroke-width:0.81995875;stroke-linecap:butt;stroke-linejoin:miter;stroke-miterlimit:4;stroke-dasharray:none"
     id="path4873-3-9"
     cx="179.47725"
     cy="106.98638"
     r="3.2115042"
     sodipodi:insensitive="true" />
  <circle
     style="display:inline;opacity:1;fill:#000000;stroke:#ffffff;stroke-width:0.72045332;stroke-linecap:butt;stroke-linejoin:miter;stroke-miterlimit:4;stroke-dasharray:none"
     id="path4973"
     cx="206.64792"
     cy="97.007408"
     r="6.3039665"
     sodipodi:insensitive="true" />
  <circle
     style="display:inline;opacity:1;fill:#000000;stroke:#ffffff;stroke-width:0.60237044;stroke-linecap:butt;stroke-linejoin:miter;stroke-miterlimit:4;stroke-dasharray:none"
     id="path4919"
     cx="239.47729"
     cy="117.01006"
     r="1.9075063"
     sodipodi:insensitive="true" />
  <circle
     style="display:inline;opacity:1;fill:#000000;stroke:#ffffff;stroke-width:0.60237044;stroke-linecap:butt;stroke-linejoin:miter;stroke-miterlimit:4;stroke-dasharray:none"
     id="path4919-1"
     cx="239.48029"
     cy="55.004391"
     r="1.9075063"
     sodipodi:insensitive="true" />
  <circle
     style="display:inline;opacity:1;fill:#000000;stroke:#ffffff;stroke-width:0.60237044;stroke-linecap:butt;stroke-linejoin:miter;stroke-miterlimit:4;stroke-dasharray:none"
     id="path4919-0"
     cx="57.488998"
     cy="117.00594"
     r="1.9075063"
     sodipodi:insensitive="true" />
  <circle
     style="display:inline;opacity:1;fill:#000000;stroke:#ffffff;stroke-width:0.60237044;stroke-linecap:butt;stroke-linejoin:miter;stroke-miterlimit:4;stroke-dasharray:none"
     id="path4919-1-9"
     cx="57.491974"
     cy="55.000286"
     r="1.9075063"
     sodipodi:insensitive="true" />
  <rect
     style="display:inline;opacity:1;fill:#000000;stroke:#ffffff;stroke-width:0.63599998;stroke-linecap:butt;stroke-linejoin:miter;stroke-miterlimit:4;stroke-dasharray:none"
     id="rect6291"
     width="48.282547"
     height="12.29381"
     x="170.84196"
     y="60.334023"
     ry="1.3229166"
     rx="1.3229148"
     sodipodi:insensitive="true" />
  <rect
     style="display:inline;opacity:1;fill:#000000;stroke:#ffffff;stroke-width:0.63605833;stroke-linecap:butt;stroke-linejoin:miter;stroke-miterlimit:4;stroke-dasharray:none"
     id="rect6291-6"
     width="48.282547"
     height="12.29381"
     x="80.85717"
     y="60.334023"
     ry="1.3229166"
     rx="1.3229148"
     sodipodi:insensitive="true" />
  <text
     xml:space="preserve"
     style="font-style:normal;font-weight:normal;font-size:4.93890715px;line-height:1.25;font-family:sans-serif;letter-spacing:0px;word-spacing:0px;display:inline;fill:#ffffff;fill-opacity:1;stroke:none;stroke-width:0.52916867;stroke-miterlimit:4;stroke-dasharray:none"
     x="96.279045"
     y="57.930286"
     id="text4982-3-2-5"
     transform="scale(1.0000038,0.99999619)"><tspan
       sodipodi:role="line"
       id="tspan4980-6-61-9"
       x="96.279045"
       y="57.930286"
       style="fill:#ffffff;stroke-width:0.52916867;stroke-miterlimit:4;stroke-dasharray:none">ACTIVE</tspan></text>
  <text
     xml:space="preserve"
     style="font-style:normal;font-weight:normal;font-size:4.93888855px;line-height:1.25;font-family:sans-serif;letter-spacing:0px;word-spacing:0px;fill:#ffffff;fill-opacity:1;stroke:none;stroke-width:0.52916664;stroke-miterlimit:4;stroke-dasharray:none"
     x="188.67244"
     y="57.930065"
     id="text4982-3-2-5-2"><tspan
       sodipodi:role="line"
       id="tspan4980-6-61-9-2"
       x="188.67244"
       y="57.930065"
       style="fill:#ffffff;stroke-width:0.52916664;stroke-miterlimit:4;stroke-dasharray:none">STBY</tspan></text>
  <text
     xml:space="preserve"
     style="font-style:normal;font-weight:normal;font-size:4.93889475px;line-height:1.25;font-family:sans-serif;letter-spacing:0px;word-spacing:0px;fill:#ffffff;fill-opacity:1;stroke:none;stroke-width:0.52916735;stroke-miterlimit:4;stroke-dasharray:none"
     x="69.617149"
     y="116.45988"
     id="text4982"
     transform="scale(1.0000013,0.9999987)"><tspan
       sodipodi:role="line"
       id="tspan4980"
       x="69.617149"
       y="116.45988"
       style="fill:#ffffff;stroke-width:0.52916735;stroke-miterlimit:4;stroke-dasharray:none">Select</tspan></text>
  <text
     xml:space="preserve"
     style="font-style:normal;font-weight:normal;font-size:4.93888855px;line-height:1.25;font-family:sans-serif;letter-spacing:0px;word-spacing:0px;fill:#ffffff;fill-opacity:1;stroke:none;stroke-width:0.52916664;stroke-miterlimit:4;stroke-dasharray:none"
     x="129.46686"
     y="102.14122"
     id="text4982-3"><tspan
       sodipodi:role="line"
       id="tspan4980-6"
       x="129.46686"
       y="102.14122"
       style="fill:#ffffff;stroke-width:0.52916664;stroke-miterlimit:4;stroke-dasharray:none">NAV1</tspan></text>
  <text
     xml:space="preserve"
     style="font-style:normal;font-weight:normal;font-size:4.93888855px;line-height:1.25;font-family:sans-serif;letter-spacing:0px;word-spacing:0px;fill:#ffffff;fill-opacity:1;stroke:none;stroke-width:0.52916664;stroke-miterlimit:4;stroke-dasharray:none"
     x="100.78893"
     y="102.0713"
     id="text4982-3-2"><tspan
       sodipodi:role="line"
       id="tspan4980-6-61"
       x="100.78893"
       y="102.0713"
       style="fill:#ffffff;stroke-width:0.52916664;stroke-miterlimit:4;stroke-dasharray:none">COM1</tspan></text>
  <text
     xml:space="preserve"
     style="font-style:normal;font-weight:normal;font-size:4.93888855px;line-height:1.25;font-family:sans-serif;letter-spacing:0px;word-spacing:0px;fill:#ffffff;fill-opacity:1;stroke:none;stroke-width:0.52916664;stroke-miterlimit:4;stroke-dasharray:none"
     x="158.98044"
     y="102.14122"
     id="text4982-3-9"><tspan
       sodipodi:role="line"
       id="tspan4980-6-2"
       x="158.98044"
       y="102.14122"
       style="fill:#ffffff;stroke-width:0.52916664;stroke-miterlimit:4;stroke-dasharray:none">ADF1</tspan></text>
  <text
     xml:space="preserve"
     style="font-style:normal;font-weight:normal;font-size:4.93888855px;line-height:1.25;font-family:sans-serif;letter-spacing:0px;word-spacing:0px;fill:#ffffff;fill-opacity:1;stroke:none;stroke-width:0.52916664;stroke-miterlimit:4;stroke-dasharray:none"
     x="115.08064"
     y="115.95471"
     id="text4982-3-0"><tspan
       sodipodi:role="line"
       id="tspan4980-6-6"
       x="115.08064"
       y="115.95471"
       style="fill:#ffffff;stroke-width:0.52916664;stroke-miterlimit:4;stroke-dasharray:none">COM2</tspan></text>
  <text
     xml:space="preserve"
     style="font-style:normal;font-weight:normal;font-size:4.93888855px;line-height:1.25;font-family:sans-serif;letter-spacing:0px;word-spacing:0px;fill:#ffffff;fill-opacity:1;stroke:none;stroke-width:0.52916664;stroke-miterlimit:4;stroke-dasharray:none"
     x="144.161"
     y="116.02466"
     id="text4982-3-0-8"><tspan
       sodipodi:role="line"
       id="tspan4980-6-6-7"
       x="144.161"
       y="116.02466"
       style="fill:#ffffff;stroke-width:0.52916664;stroke-miterlimit:4;stroke-dasharray:none">NAV2</tspan></text>
  <text
     xml:space="preserve"
     style="font-style:normal;font-weight:normal;font-size:4.93888855px;line-height:1.25;font-family:sans-serif;letter-spacing:0px;word-spacing:0px;fill:#ffffff;fill-opacity:1;stroke:none;stroke-width:0.52916664;stroke-miterlimit:4;stroke-dasharray:none"
     x="174.0746"
     y="116.02466"
     id="text4982-3-0-8-0"><tspan
       sodipodi:role="line"
       id="tspan4980-6-6-7-2"
       x="174.0746"
       y="116.02466"
       style="fill:#ffffff;stroke-width:0.52916664;stroke-miterlimit:4;stroke-dasharray:none">ADF2</tspan></text>
</svg>
