<?xml version="1.0" encoding="UTF-8" standalone="no"?>

<svg
	xmlns="http://www.w3.org/2000/svg" version="1.1"
	xmlns:freecad="http://www.freecadweb.org/wiki/index.php?title=Svg_Namespace"
	width="297mm"
	height="210mm"
	viewBox="0 0 297 210">
	<!-- Working space 10 10 287 200 -->
	<!-- Title block 107 162 287 200 -->
	<g>
		<rect
			id="drawing-border"
			style="fill:none;stroke:#000000;stroke-width:0.35;stroke-linecap:miter;stroke-miterlimit:4"
			width="277"
			height="190"
			x="10"
			y="10" />
			<!-- width-20, height-20 -->
		<g
			transform="translate(87,-65)">
			<!-- A4 Portrait based for other formats width-210, height-297 -->
			<!--        page       rect   translation
			               w    h    rw   rh   tx   ty
			        A4-P  210  297  180  277    0    0
			        A3-L  420  297  390  277  210    0
			        A2-L  594  420  564  400  384  123
			        A1-L  841  594  811  574  631  297
			        A0-L 1189  841 1159  821  979  544
			-->
			<g
				id="titleblock-structure"
				style="fill:none;stroke:#000000;stroke-width:0.35;stroke-linecap:miter;stroke-miterlimit:4">
				<rect width="180" height="38" x="20" y="227" />
				<path d="m 20,238 h 180" />
				<path d="m 80,227 v 11" />
				<path d="m 140,227 v 38" />
				<path d="m 160,227 v 11" />
				<path d="m 180,227 v 11" />
				<path d="m 140,254 h 60" />
				<path d="m 180,254 v 11" />
			</g>
			<g
				id="titleblock-text-non-editable"
				style="font-size:3px;text-anchor:start;fill:#000000;font-family:osifont"
				xml:space="preserve">
				<text x="21" y="230.5">Created by:</text>
				<text x="81" y="230.5">Title:</text>
				<text x="21" y="241.5">Supplementary information:</text>
				<text x="141" y="230.5">Size:</text>
				<text x="161" y="230.5">Sheet:</text>
				<text x="181" y="230.5">Scale:</text>
				<text x="141" y="241.5">Part number:</text>
				<text x="141" y="249.5">Drawing no.:</text>
				<text x="141" y="257.5">Date:</text>
				<text x="181" y="257.5">Revision:</text>
			</g>
			<g
				id="titleblock-text-editable"
				style="font-size:5px;text-anchor:middle;fill:#000000;font-family:osifont"
				xml:space="preserve">
				<text freecad:editable="AUTHOR NAME" x="50" y="236"><tspan>Ernesto Aides</tspan></text>
				<text freecad:editable="DRAWING TITLE" x="110" y="236"><tspan>Panel radio version V</tspan></text>
				<text freecad:editable="SI-1" x="80" y="247"><tspan></tspan></text>
				<text freecad:editable="FreeCAD DRAWING" x="80" y="254"><tspan>FreeCAD DRAWING</tspan></text>
				<text freecad:editable="SI-3" x="80" y="261"><tspan></tspan></text>
				<text freecad:editable="FC-SI" x="150" y="236"><tspan>A4</tspan></text>
				<text freecad:editable="FC-SH" x="170" y="236"><tspan>X / Y</tspan></text>
				<text freecad:editable="FC-SC" x="190" y="236"><tspan>1:1</tspan></text>
				<text freecad:editable="PN" x="180" y="244"><tspan>PN</tspan></text>
				<text freecad:editable="DN" x="180" y="252"><tspan>DN</tspan></text>
				<text freecad:editable="FC-DATE" x="160" y="263"><tspan>04/07/2019</tspan></text>
				<text freecad:editable="FC-REV" x="190" y="263"><tspan>REV A</tspan></text>
			</g>
			<!-- Set display:none to hide FreeCAD Logo -->
			<g
				style="display:inline"
				id="freecad-logo"
				transform="translate(128.5,254)"
				fill-rule="evenodd"
				stroke="#000"
				stroke-width="0.35"
				fill="none">
					<path d="m0.1524 0.15254v8.8549h1.9744v-3.4652h1.396v-1.3661h-1.396v-1.4745h3.4391v-2.5441l-5.4135-0.005z"/>
					<path d="m7.7927 3.4504-0.50715-0.176-0.48387-1.2366-0.76115 0.04-0.34718 1.2787-0.4859 0.23269-1.2119-0.53015-0.51188 0.56882 0.65892 1.1485-0.18006 0.50567-1.2366 0.48387 0.044064 0.76263 1.2787 0.34718 0.23269 0.4859-0.53421 1.2104 0.56882 0.51188 1.1485-0.65891 0.50973 0.18155 0.4798 1.2351 0.7667-0.04258 0.34311-1.2802 0.4859-0.23269 1.2145 0.5357 0.51188-0.56882-0.65891-1.1485 0.17748-0.51122 1.2351-0.4798-0.03851-0.76521-1.2802-0.34311-0.23269-0.4859 0.53163-1.216-0.56881-0.51184zm-0.5715 1.2244 0.23576 0.13679 0.20426 0.18519 0.16353 0.22101 0.11763 0.24572 0.06916 0.26489 0.01146 0.27146-0.03921 0.27139-0.08948 0.25764-0.14234 0.23834-0.17964 0.20167-0.22101 0.16353-0.24572 0.11763-0.26489 0.06916-0.27295 0.01553-0.2719-0.04-0.2576-0.089-0.2383-0.143-0.2002-0.183-0.165-0.217-0.1177-0.246-0.0676-0.269-0.0156-0.273 0.039206-0.2714 0.089484-0.25764 0.14085-0.23427 0.18113-0.20574 0.22101-0.16352 0.24572-0.11763 0.26895-0.06768 0.27147-0.01146 0.27139 0.03921 0.25764 0.08948z"/>
			</g>
		</g>
	</g>
<g id="Ortho_0_0"
   transform="rotate(0,142.5,158.333) translate(142.5,158.333) scale(1,1)"
  >
<g   fill="none"
   stroke="rgb(0, 0, 0)"
   stroke-linecap="butt"
   stroke-linejoin="miter"
   stroke-width="0.350000"
   transform="scale(1,-1)"
  >
<path id= "1" d=" M -89 19 L -89 89 " />
<path id= "2" d=" M -89 19 L 101 19 " />
<path id= "3" d=" M -89 89 L 101 89 " />
<path id= "4" d=" M 101 19 L 101 89 " />
<path id= "5" d=" M -61.5 67.5 L -13.5 67.5 " />
<path id= "6" d=" M -61.5 79.5 L -61.5 67.5 " />
<path id= "7" d=" M -61.5 79.5 L -13.5 79.5 " />
<path id= "8" d=" M -13.5 79.5 L -13.5 67.5 " />
<path id= "9" d=" M 28.5 67.5 L 76.5 67.5 " />
<path id= "10" d=" M 28.5 79.5 L 28.5 67.5 " />
<path id= "11" d=" M 28.5 79.5 L 76.5 79.5 " />
<path id= "12" d=" M 76.5 79.5 L 76.5 67.5 " />
<circle cx ="79.85" cy ="43" r ="6.2" /><path id= "14" d=" M -68.8 35.2 L -61.2 35.2 " />
<path d="M-61.2 35.2 A2 2 0 0 0 -59.2 33.2" /><path id= "16" d=" M -59.2 29.8 L -59.2 33.2 " />
<path d="M-59.2 29.8 A2 2 0 0 0 -61.2 27.8" /><path id= "18" d=" M -68.8 27.8 L -61.2 27.8 " />
<path d="M-68.8 27.8 A2 2 0 0 0 -70.8 29.8" /><path id= "20" d=" M -70.8 29.8 L -70.8 33.2 " />
<path d="M-70.8 33.2 A2 2 0 0 0 -68.8 35.2" /><path id= "22" d=" M 2.2 61.2 L 9.8 61.2 " />
<path d="M9.8 61.2 A2 2 0 0 0 11.8 59.2" /><path id= "24" d=" M 11.8 55.8 L 11.8 59.2 " />
<path d="M11.8 55.8 A2 2 0 0 0 9.8 53.8" /><path id= "26" d=" M 2.2 53.8 L 9.8 53.8 " />
<path d="M2.2 53.8 A2 2 0 0 0 0.2 55.8" /><path id= "28" d=" M 0.2 55.8 L 0.2 59.2 " />
<path d="M0.2 59.2 A2 2 0 0 0 2.2 61.2" /><circle cx ="8" cy ="31" r ="3" /><circle cx ="-6.5" cy ="31" r ="3" /><circle cx ="-35.5" cy ="31" r ="3" /><circle cx ="-21" cy ="31" r ="3" /><circle cx ="37" cy ="31" r ="3" /><circle cx ="22.5" cy ="31" r ="3" /><circle cx ="-85" cy ="23" r ="1.8" /><circle cx ="97" cy ="23" r ="1.8" /><circle cx ="97" cy ="85" r ="1.8" /><circle cx ="-85" cy ="85" r ="1.8" /></g>
</g>



<g id="Ortho_0_1"
   transform="rotate(90,142.5,150.667) translate(142.5,150.667) scale(1,1)"
  >
<g   fill="none"
   stroke="rgb(0, 0, 0)"
   stroke-linecap="butt"
   stroke-linejoin="miter"
   stroke-width="0.350000"
   transform="scale(1,-1)"
  >
<path id= "1" d=" M -107 75.8 L -111.5 75.8 " />
<path id= "2" d=" M -107 -48 L -118 -48 " />
<path id= "3" d=" M -113.5 -74 L -118 -74 " />
<path id= "4" d=" M -113.5 -3 L -118 -3 " />
<path id= "5" d=" M -107 23 L -118 23 " />
<path id= "6" d=" M -113.5 10 L -107 10 " />
<path id= "7" d=" M -113.5 -80 L -107 -80 " />
<path id= "8" d=" M -113.5 86 L -107 86 " />
<path id= "9" d=" M -113.5 -4 L -107 -4 " />
</g>
<g   fill="none"
   stroke="rgb(0, 0, 0)"
   stroke-linecap="butt"
   stroke-linejoin="miter"
   stroke-width="0.350000"
   transform="scale(1,-1)"
  >
<path id= "1" d=" M -107 -89 L -104 -89 " />
<path id= "2" d=" M -107 -89 L -107 101 " />
<path id= "3" d=" M -107 101 L -104 101 " />
<path id= "4" d=" M -104 -89 L -104 101 " />
<path id= "5" d=" M -107 83.8 L -111.5 83.8 " />
<path d="M-111.5,75.8 L-111.5,75.9003  L-111.5,76.1961  L-111.5,76.6727  L-111.5,77.306  L-111.5,78.0645  L-111.5,78.9099  L-111.5,79.8  L-111.5,80.6901  L-111.5,81.5355  L-111.5,82.294  L-111.5,82.9273  L-111.5,83.4039  L-111.5,83.6997  L-111.5,83.8 " /><path d="M-118,-56 L-118,-55.8997  L-118,-55.6039  L-118,-55.1273  L-118,-54.494  L-118,-53.7355  L-118,-52.8901  L-118,-52  L-118,-51.1099  L-118,-50.2645  L-118,-49.506  L-118,-48.8727  L-118,-48.3961  L-118,-48.1003  L-118,-48 " /><path id= "8" d=" M -107 -56 L -118 -56 " />
<path d="M-118,-82 L-118,-81.8997  L-118,-81.6039  L-118,-81.1273  L-118,-80.494  L-118,-79.7355  L-118,-78.8901  L-118,-78  L-118,-77.1099  L-118,-76.2645  L-118,-75.506  L-118,-74.8727  L-118,-74.3961  L-118,-74.1003  L-118,-74 " /><path id= "10" d=" M -107 -82 L -118 -82 " />
<path d="M-118,-11 L-118,-10.8997  L-118,-10.6039  L-118,-10.1273  L-118,-9.49396  L-118,-8.73553  L-118,-7.89008  L-118,-7  L-118,-6.10992  L-118,-5.26447  L-118,-4.50604  L-118,-3.87267  L-118,-3.39612  L-118,-3.10029  L-118,-3 " /><path id= "12" d=" M -107 -11 L -118 -11 " />
<path d="M-118,15 L-118,15.1003  L-118,15.3961  L-118,15.8727  L-118,16.506  L-118,17.2645  L-118,18.1099  L-118,19  L-118,19.8901  L-118,20.7355  L-118,21.494  L-118,22.1273  L-118,22.6039  L-118,22.8997  L-118,23 " /><path id= "14" d=" M -113.5 15 L -118 15 " />
<path d="M-113.5,16 L-107,16 " /><path d="M-113.5,16 L-113.5,15.9248  L-113.5,15.7029  L-113.5,15.3455  L-113.5,14.8705  L-113.5,14.3017  L-113.5,13.6676  L-113.5,13  L-113.5,12.3324  L-113.5,11.6983  L-113.5,11.1295  L-113.5,10.6545  L-113.5,10.2971  L-113.5,10.0752  L-113.5,10 " /><path d="M-113.5,-74 L-107,-74 " /><path d="M-113.5,-74 L-113.5,-74.0752  L-113.5,-74.2971  L-113.5,-74.6545  L-113.5,-75.1295  L-113.5,-75.6983  L-113.5,-76.3324  L-113.5,-77  L-113.5,-77.6676  L-113.5,-78.3017  L-113.5,-78.8705  L-113.5,-79.3455  L-113.5,-79.7029  L-113.5,-79.9248  L-113.5,-80 " /><path d="M-113.5,92 L-113.5,91.9248  L-113.5,91.7029  L-113.5,91.3455  L-113.5,90.8705  L-113.5,90.3017  L-113.5,89.6676  L-113.5,89  L-113.5,88.3324  L-113.5,87.6983  L-113.5,87.1295  L-113.5,86.6545  L-113.5,86.2971  L-113.5,86.0752  L-113.5,86 " /><path d="M-113.5,92 L-107,92 " /><path d="M-113.5,2 L-113.5,1.92478  L-113.5,1.70291  L-113.5,1.34549  L-113.5,0.870469  L-113.5,0.301651  L-113.5,-0.332437  L-113.5,-1  L-113.5,-1.66756  L-113.5,-2.30165  L-113.5,-2.87047  L-113.5,-3.34549  L-113.5,-3.70291  L-113.5,-3.92478  L-113.5,-4 " /><path d="M-113.5,2 L-107,2 " /></g>
</g>



</svg>

