<?xml version="1.0" encoding="UTF-8" standalone="no"?>
<svg
   xmlns:freecad="http://www.freecadweb.org/wiki/index.php?title=Svg_Namespace"
   xmlns:dc="http://purl.org/dc/elements/1.1/"
   xmlns:cc="http://creativecommons.org/ns#"
   xmlns:rdf="http://www.w3.org/1999/02/22-rdf-syntax-ns#"
   xmlns:svg="http://www.w3.org/2000/svg"
   xmlns="http://www.w3.org/2000/svg"
   xmlns:sodipodi="http://sodipodi.sourceforge.net/DTD/sodipodi-0.dtd"
   xmlns:inkscape="http://www.inkscape.org/namespaces/inkscape"
   version="1.1"
   width="297mm"
   height="210mm"
   viewBox="0 0 297 210"
   id="svg4985"
   sodipodi:docname="radio_negro.svg"
   inkscape:version="0.92.4 (unknown)">
  <metadata
     id="metadata4991">
    <rdf:RDF>
      <cc:Work
         rdf:about="">
        <dc:format>image/svg+xml</dc:format>
        <dc:type
           rdf:resource="http://purl.org/dc/dcmitype/StillImage" />
        <dc:title />
      </cc:Work>
    </rdf:RDF>
  </metadata>
  <defs
     id="defs4989" />
  <sodipodi:namedview
     pagecolor="#ffffff"
     bordercolor="#666666"
     borderopacity="1"
     objecttolerance="10"
     gridtolerance="10"
     guidetolerance="10"
     inkscape:pageopacity="0"
     inkscape:pageshadow="2"
     inkscape:window-width="1623"
     inkscape:window-height="1029"
     id="namedview4987"
     showgrid="false"
     inkscape:zoom="1.4142136"
     inkscape:cx="567.10469"
     inkscape:cy="303.20046"
     inkscape:window-x="57"
     inkscape:window-y="21"
     inkscape:window-maximized="1"
     inkscape:current-layer="svg4985" />
  <!-- Working space 10 10 287 200 -->
  <!-- Title block 107 162 287 200 -->
  <g
     id="g4855"
     style="display:inline">
    <rect
       id="drawing-border"
       style="fill:none;stroke:#000000;stroke-width:0.34999999;stroke-miterlimit:4"
       width="277"
       height="190"
       x="10"
       y="10" />
    <!-- width-20, height-20 -->
    <g
       transform="translate(87,-65)"
       id="g4853">
      <!-- A4 Portrait based for other formats width-210, height-297 -->
      <!--        page       rect   translation
			               w    h    rw   rh   tx   ty
			        A4-P  210  297  180  277    0    0
			        A3-L  420  297  390  277  210    0
			        A2-L  594  420  564  400  384  123
			        A1-L  841  594  811  574  631  297
			        A0-L 1189  841 1159  821  979  544
			-->
      <g
         id="titleblock-structure"
         style="fill:none;stroke:#000000;stroke-width:0.34999999;stroke-miterlimit:4">
        <rect
           width="180"
           height="38"
           x="20"
           y="227"
           id="rect4761" />
        <path
           d="M 20,238 H 200"
           id="path4763"
           inkscape:connector-curvature="0" />
        <path
           d="m 80,227 v 11"
           id="path4765"
           inkscape:connector-curvature="0" />
        <path
           d="m 140,227 v 38"
           id="path4767"
           inkscape:connector-curvature="0" />
        <path
           d="m 160,227 v 11"
           id="path4769"
           inkscape:connector-curvature="0" />
        <path
           d="m 180,227 v 11"
           id="path4771"
           inkscape:connector-curvature="0" />
        <path
           d="m 140,254 h 60"
           id="path4773"
           inkscape:connector-curvature="0" />
        <path
           d="m 180,254 v 11"
           id="path4775"
           inkscape:connector-curvature="0" />
      </g>
      <g
         id="titleblock-text-non-editable"
         style="font-size:3px;font-family:osifont;text-anchor:start;fill:#000000"
         xml:space="preserve">
				<text
   x="21"
   y="230.5"
   id="text4778">Created by:</text>


				<text
   x="81"
   y="230.5"
   id="text4780">Title:</text>


				<text
   x="21"
   y="241.5"
   id="text4782">Supplementary information:</text>


				<text
   x="141"
   y="230.5"
   id="text4784">Size:</text>


				<text
   x="161"
   y="230.5"
   id="text4786">Sheet:</text>


				<text
   x="181"
   y="230.5"
   id="text4788">Scale:</text>


				<text
   x="141"
   y="241.5"
   id="text4790">Part number:</text>


				<text
   x="141"
   y="249.5"
   id="text4792">Drawing no.:</text>


				<text
   x="141"
   y="257.5"
   id="text4794">Date:</text>


				<text
   x="181"
   y="257.5"
   id="text4796">Revision:</text>


			</g>      <g
         id="titleblock-text-editable"
         style="font-size:5px;font-family:osifont;text-anchor:middle;fill:#000000"
         xml:space="preserve">
				<text
   freecad:editable="AUTHOR NAME"
   x="50"
   y="236"
   id="text4801"><tspan
     id="tspan4799">Ernesto Aides</tspan></text>


				<text
   freecad:editable="DRAWING TITLE"
   x="110"
   y="236"
   id="text4805"><tspan
     id="tspan4803">Panel radio version V</tspan></text>


				<text
   freecad:editable="SI-1"
   x="80"
   y="247"
   id="text4809"><tspan
     id="tspan4807" /></text>


				<text
   freecad:editable="FreeCAD DRAWING"
   x="80"
   y="254"
   id="text4813"><tspan
     id="tspan4811">FreeCAD DRAWING</tspan></text>


				<text
   freecad:editable="SI-3"
   x="80"
   y="261"
   id="text4817"><tspan
     id="tspan4815" /></text>


				<text
   freecad:editable="FC-SI"
   x="150"
   y="236"
   id="text4821"><tspan
     id="tspan4819">A4</tspan></text>


				<text
   freecad:editable="FC-SH"
   x="170"
   y="236"
   id="text4825"><tspan
     id="tspan4823">X / Y</tspan></text>


				<text
   freecad:editable="FC-SC"
   x="190"
   y="236"
   id="text4829"><tspan
     id="tspan4827">1:1</tspan></text>


				<text
   freecad:editable="PN"
   x="180"
   y="244"
   id="text4833"><tspan
     id="tspan4831">PN</tspan></text>


				<text
   freecad:editable="DN"
   x="180"
   y="252"
   id="text4837"><tspan
     id="tspan4835">DN</tspan></text>


				<text
   freecad:editable="FC-DATE"
   x="160"
   y="263"
   id="text4841"><tspan
     id="tspan4839">04/07/2019</tspan></text>


				<text
   freecad:editable="FC-REV"
   x="190"
   y="263"
   id="text4845"><tspan
     id="tspan4843">REV A</tspan></text>


			</g>      <!-- Set display:none to hide FreeCAD Logo -->
      <g
         style="display:inline;fill:none;fill-rule:evenodd;stroke:#000000;stroke-width:0.34999999"
         id="freecad-logo"
         transform="translate(128.5,254)">
        <path
           d="m 0.1524,0.15254 v 8.8549 h 1.9744 v -3.4652 h 1.396 v -1.3661 h -1.396 v -1.4745 h 3.4391 v -2.5441 z"
           id="path4848"
           inkscape:connector-curvature="0" />
        <path
           d="M 7.7927,3.4504 7.28555,3.2744 6.80168,2.0378 6.04053,2.0778 5.69335,3.3565 5.20745,3.58919 3.99555,3.05904 3.48367,3.62786 4.14259,4.77636 3.96253,5.28203 2.72593,5.7659 l 0.044064,0.76263 1.2787,0.34718 0.23269,0.4859 -0.53421,1.2104 0.56882,0.51188 1.1485,-0.65891 0.50973,0.18155 0.4798,1.2351 0.7667,-0.04258 0.34311,-1.2802 0.4859,-0.23269 1.2145,0.5357 0.51188,-0.56882 -0.65891,-1.1485 0.17748,-0.51122 1.2351,-0.4798 L 10.491274,5.34831 9.211074,5.0052 8.978384,4.5193 9.510014,3.3033 8.941204,2.79146 Z M 7.2212,4.6748 7.45696,4.81159 7.66122,4.99678 7.82475,5.21779 7.94238,5.46351 8.01154,5.7284 8.023,5.99986 7.98379,6.27125 7.89431,6.52889 7.75197,6.76723 7.57233,6.9689 7.35132,7.13243 7.1056,7.25006 6.84071,7.31922 6.56776,7.33475 l -0.2719,-0.04 -0.2576,-0.089 -0.2383,-0.143 -0.2002,-0.183 -0.165,-0.217 -0.1177,-0.246 -0.0676,-0.269 -0.0156,-0.273 L 5.273066,5.60335 5.36255,5.34571 5.5034,5.11144 5.68453,4.9057 5.90554,4.74218 6.15126,4.62455 6.42021,4.55687 6.69168,4.54541 6.96307,4.58462 7.22071,4.6741 Z"
           id="path4850"
           inkscape:connector-curvature="0" />
      </g>
    </g>
  </g>
  <g
     id="Ortho_0_0"
     transform="translate(142.5,158.333)"
     style="display:none;fill:none">
    <g
       transform="scale(1,-1)"
       id="g4915"
       style="fill:none;stroke:#000000;stroke-width:0.34999999;stroke-linecap:butt;stroke-linejoin:miter">
      <path
         id="1"
         d="M -89,19 V 89"
         style="fill:none"
         inkscape:connector-curvature="0" />
      <path
         id="2"
         d="M -89,19 H 101"
         style="fill:none"
         inkscape:connector-curvature="0" />
      <path
         id="3"
         d="M -89,89 H 101"
         style="fill:none"
         inkscape:connector-curvature="0" />
      <path
         id="4"
         d="M 101,19 V 89"
         style="fill:none"
         inkscape:connector-curvature="0" />
      <path
         id="5"
         d="m -61.5,67.5 h 48"
         style="fill:none"
         inkscape:connector-curvature="0" />
      <path
         id="6"
         d="m -61.5,79.5 v -12"
         style="fill:none"
         inkscape:connector-curvature="0" />
      <path
         id="7"
         d="m -61.5,79.5 h 48"
         style="fill:none"
         inkscape:connector-curvature="0" />
      <path
         id="8"
         d="m -13.5,79.5 v -12"
         style="fill:none"
         inkscape:connector-curvature="0" />
      <path
         id="9"
         d="m 28.5,67.5 h 48"
         style="fill:none"
         inkscape:connector-curvature="0" />
      <path
         id="10"
         d="m 28.5,79.5 v -12"
         style="fill:none"
         inkscape:connector-curvature="0" />
      <path
         id="11"
         d="m 28.5,79.5 h 48"
         style="fill:none"
         inkscape:connector-curvature="0" />
      <path
         id="12"
         d="m 76.5,79.5 v -12"
         style="fill:none"
         inkscape:connector-curvature="0" />
      <circle
         cx="79.849998"
         cy="43"
         r="6.1999998"
         id="circle4869"
         style="fill:none" />
      <path
         id="14"
         d="m -68.8,35.2 h 7.6"
         style="fill:none"
         inkscape:connector-curvature="0" />
      <path
         d="m -61.2,35.2 a 2,2 0 0 0 2,-2"
         id="path4872"
         style="fill:none"
         inkscape:connector-curvature="0" />
      <path
         id="16"
         d="m -59.2,29.8 v 3.4"
         style="fill:none"
         inkscape:connector-curvature="0" />
      <path
         d="m -59.2,29.8 a 2,2 0 0 0 -2,-2"
         id="path4875"
         style="fill:none"
         inkscape:connector-curvature="0" />
      <path
         id="18"
         d="m -68.8,27.8 h 7.6"
         style="fill:none"
         inkscape:connector-curvature="0" />
      <path
         d="m -68.8,27.8 a 2,2 0 0 0 -2,2"
         id="path4878"
         style="fill:none"
         inkscape:connector-curvature="0" />
      <path
         id="20"
         d="m -70.8,29.8 v 3.4"
         style="fill:none"
         inkscape:connector-curvature="0" />
      <path
         d="m -70.8,33.2 a 2,2 0 0 0 2,2"
         id="path4881"
         style="fill:none"
         inkscape:connector-curvature="0" />
      <path
         id="22"
         d="M 2.2,61.2 H 9.8"
         style="fill:none"
         inkscape:connector-curvature="0" />
      <path
         d="m 9.8,61.2 a 2,2 0 0 0 2,-2"
         id="path4884"
         style="fill:none"
         inkscape:connector-curvature="0" />
      <path
         id="24"
         d="m 11.8,55.8 v 3.4"
         style="fill:none"
         inkscape:connector-curvature="0" />
      <path
         d="m 11.8,55.8 a 2,2 0 0 0 -2,-2"
         id="path4887"
         style="fill:none"
         inkscape:connector-curvature="0" />
      <path
         id="26"
         d="M 2.2,53.8 H 9.8"
         style="fill:none"
         inkscape:connector-curvature="0" />
      <path
         d="m 2.2,53.8 a 2,2 0 0 0 -2,2"
         id="path4890"
         style="fill:none"
         inkscape:connector-curvature="0" />
      <path
         id="28"
         d="m 0.2,55.8 v 3.4"
         style="fill:none"
         inkscape:connector-curvature="0" />
      <path
         d="m 0.2,59.2 a 2,2 0 0 0 2,2"
         id="path4893"
         style="fill:none"
         inkscape:connector-curvature="0" />
      <circle
         cx="8"
         cy="31"
         r="3"
         id="circle4895"
         style="fill:none" />
      <circle
         cx="-6.5"
         cy="31"
         r="3"
         id="circle4897"
         style="fill:none" />
      <circle
         cx="-35.5"
         cy="31"
         r="3"
         id="circle4899"
         style="fill:none" />
      <circle
         cx="-21"
         cy="31"
         r="3"
         id="circle4901"
         style="fill:none" />
      <circle
         cx="37"
         cy="31"
         r="3"
         id="circle4903"
         style="fill:none" />
      <circle
         cx="22.5"
         cy="31"
         r="3"
         id="circle4905"
         style="fill:none" />
      <circle
         cx="-85"
         cy="23"
         r="1.8"
         id="circle4907"
         style="fill:none" />
      <circle
         cx="97"
         cy="23"
         r="1.8"
         id="circle4909"
         style="fill:none" />
      <circle
         cx="97"
         cy="85"
         r="1.8"
         id="circle4911"
         style="fill:none" />
      <circle
         cx="-85"
         cy="85"
         r="1.8"
         id="circle4913"
         style="fill:none" />
    </g>
  </g>
  <g
     id="Ortho_0_1"
     transform="rotate(90,-4.0835,146.5835)"
     style="display:inline">
    <g
       transform="scale(1,-1)"
       id="g4936"
       style="fill:none;stroke:#000000;stroke-width:0.34999999;stroke-linecap:butt;stroke-linejoin:miter">
      <path
         id="path4918"
         d="m -107,75.8 h -4.5"
         inkscape:connector-curvature="0" />
      <path
         id="path4920"
         d="m -107,-48 h -11"
         inkscape:connector-curvature="0" />
      <path
         id="path4922"
         d="M -113.5,-74 H -118"
         inkscape:connector-curvature="0" />
      <path
         id="path4924"
         d="M -113.5,-3 H -118"
         inkscape:connector-curvature="0" />
      <path
         id="path4926"
         d="m -107,23 h -11"
         inkscape:connector-curvature="0" />
      <path
         id="path4928"
         d="m -113.5,10 h 6.5"
         inkscape:connector-curvature="0" />
      <path
         id="path4930"
         d="m -113.5,-80 h 6.5"
         inkscape:connector-curvature="0" />
      <path
         id="path4932"
         d="m -113.5,86 h 6.5"
         inkscape:connector-curvature="0" />
      <path
         id="path4934"
         d="m -113.5,-4 h 6.5"
         inkscape:connector-curvature="0" />
    </g>
    <g
       transform="scale(1,-1)"
       id="g4982"
       style="fill:none;stroke:#000000;stroke-width:0.34999999;stroke-linecap:butt;stroke-linejoin:miter">
      <path
         id="path4938"
         d="m -107,-89 h 3"
         inkscape:connector-curvature="0" />
      <path
         id="path4940"
         d="M -107,-89 V 101"
         inkscape:connector-curvature="0" />
      <path
         id="path4942"
         d="m -107,101 h 3"
         inkscape:connector-curvature="0" />
      <path
         id="path4944"
         d="M -104,-89 V 101"
         inkscape:connector-curvature="0" />
      <path
         id="path4946"
         d="m -107,83.8 h -4.5"
         inkscape:connector-curvature="0" />
      <path
         d="m -111.5,75.8 v 0.1003 0.2958 0.4766 0.6333 0.7585 0.8454 0.8901 0.8901 0.8454 0.7585 0.6333 0.4766 0.2958 0.1003"
         id="path4948"
         inkscape:connector-curvature="0" />
      <path
         d="m -118,-56 v 0.1003 0.2958 0.4766 0.6333 0.7585 0.8454 0.8901 0.8901 0.8454 0.7585 0.6333 0.4766 0.2958 V -48"
         id="path4950"
         inkscape:connector-curvature="0" />
      <path
         id="path4952"
         d="m -107,-56 h -11"
         inkscape:connector-curvature="0" />
      <path
         d="m -118,-82 v 0.1003 0.2958 0.4766 0.6333 0.7585 0.8454 0.8901 0.8901 0.8454 0.7585 0.6333 0.4766 0.2958 V -74"
         id="path4954"
         inkscape:connector-curvature="0" />
      <path
         id="path4956"
         d="m -107,-82 h -11"
         inkscape:connector-curvature="0" />
      <path
         d="m -118,-11 v 0.1003 0.2958 0.4766 0.63334 0.75843 0.84545 V -7 v 0.89008 0.84545 0.75843 0.63337 0.47655 0.29583 V -3"
         id="path4958"
         inkscape:connector-curvature="0" />
      <path
         id="path4960"
         d="m -107,-11 h -11"
         inkscape:connector-curvature="0" />
      <path
         d="m -118,15 v 0.1003 0.2958 0.4766 0.6333 0.7585 0.8454 0.8901 0.8901 0.8454 0.7585 0.6333 0.4766 0.2958 V 23"
         id="path4962"
         inkscape:connector-curvature="0" />
      <path
         id="path4964"
         d="M -113.5,15 H -118"
         inkscape:connector-curvature="0" />
      <path
         d="m -113.5,16 h 6.5"
         id="path4966"
         inkscape:connector-curvature="0" />
      <path
         d="M -113.5,16 V 15.9248 15.7029 15.3455 14.8705 14.3017 13.6676 13 12.3324 11.6983 11.1295 10.6545 10.2971 10.0752 10"
         id="path4968"
         inkscape:connector-curvature="0" />
      <path
         d="m -113.5,-74 h 6.5"
         id="path4970"
         inkscape:connector-curvature="0" />
      <path
         d="m -113.5,-74 v -0.0752 -0.2219 -0.3574 -0.475 -0.5688 -0.6341 -0.6676 -0.6676 -0.6341 -0.5688 -0.475 -0.3574 -0.2219 V -80"
         id="path4972"
         inkscape:connector-curvature="0" />
      <path
         d="M -113.5,92 V 91.9248 91.7029 91.3455 90.8705 90.3017 89.6676 89 88.3324 87.6983 87.1295 86.6545 86.2971 86.0752 86"
         id="path4974"
         inkscape:connector-curvature="0" />
      <path
         d="m -113.5,92 h 6.5"
         id="path4976"
         inkscape:connector-curvature="0" />
      <path
         d="M -113.5,2 V 1.92478 1.70291 1.34549 0.870469 0.301651 -0.332437 -1 -1.66756 -2.30165 -2.87047 -3.34549 -3.70291 -3.92478 -4"
         id="path4978"
         inkscape:connector-curvature="0" />
      <path
         d="m -113.5,2 h 6.5"
         id="path4980"
         inkscape:connector-curvature="0" />
    </g>
  </g>
  <rect
     style="display:inline;fill:#000000;stroke:#ffffff;stroke-width:0;stroke-linecap:butt;stroke-linejoin:miter;stroke-miterlimit:4;stroke-dasharray:none"
     id="rect4978"
     width="190"
     height="70"
     x="53.721169"
     y="69.761818"
     ry="0" />
  <rect
     style="fill:#000000;stroke:#ffffff;stroke-width:0.63368994;stroke-linecap:butt;stroke-linejoin:round;stroke-miterlimit:4;stroke-dasharray:none"
     id="rect6291-3"
     width="48.229912"
     height="12.232029"
     x="170.8918"
     y="78.713783"
     ry="1.3180285"
     rx="1.3216336" />
  <rect
     style="fill:#000000;stroke:#ffffff;stroke-width:0.636;stroke-linecap:butt;stroke-linejoin:miter;stroke-miterlimit:4;stroke-dasharray:none"
     id="rect6291"
     width="48.282612"
     height="12.29381"
     x="80.858025"
     y="78.678711"
     ry="1.3229166"
     rx="1.3229166" />
  <rect
     style="fill:#000000;stroke:#ffffff;stroke-width:0.55613637;stroke-linecap:butt;stroke-linejoin:miter;stroke-miterlimit:4;stroke-dasharray:none"
     id="rect992"
     width="11.747589"
     height="7.5089941"
     x="142.63464"
     y="97.052368"
     rx="2.1933451"
     ry="2.0523429" />
  <rect
     style="fill:#000000;stroke:#ffffff;stroke-width:0.55613637;stroke-linecap:butt;stroke-linejoin:miter;stroke-miterlimit:4;stroke-dasharray:none"
     id="rect992-3"
     width="11.747589"
     height="7.5089941"
     x="71.60907"
     y="123.04832"
     rx="2.1933451"
     ry="2.0523429" />
  <circle
     style="fill:#000000;stroke:#ffffff;stroke-width:0.81995875;stroke-linecap:butt;stroke-linejoin:miter;stroke-miterlimit:4;stroke-dasharray:none"
     id="path4873"
     cx="107.00743"
     cy="127.33424"
     r="3.2115049" />
  <circle
     style="fill:#000000;stroke:#ffffff;stroke-width:0.81995875;stroke-linecap:butt;stroke-linejoin:miter;stroke-miterlimit:4;stroke-dasharray:none"
     id="path4873-3"
     cx="121.49975"
     cy="127.32374"
     r="3.2115047" />
  <circle
     style="fill:#000000;stroke:#ffffff;stroke-width:0.81995875;stroke-linecap:butt;stroke-linejoin:miter;stroke-miterlimit:4;stroke-dasharray:none"
     id="path4873-5"
     cx="135.98438"
     cy="127.34776"
     r="3.2115047" />
  <circle
     style="fill:#000000;stroke:#ffffff;stroke-width:0.81995875;stroke-linecap:butt;stroke-linejoin:miter;stroke-miterlimit:4;stroke-dasharray:none"
     id="path4873-3-6"
     cx="150.47668"
     cy="127.33725"
     r="3.2115045" />
  <circle
     style="fill:#000000;stroke:#ffffff;stroke-width:0.81995875;stroke-linecap:butt;stroke-linejoin:miter;stroke-miterlimit:4;stroke-dasharray:none"
     id="path4873-2"
     cx="164.9976"
     cy="127.34777"
     r="3.2115047" />
  <circle
     style="fill:#000000;stroke:#ffffff;stroke-width:0.81995875;stroke-linecap:butt;stroke-linejoin:miter;stroke-miterlimit:4;stroke-dasharray:none"
     id="path4873-3-9"
     cx="179.48991"
     cy="127.33726"
     r="3.2115045" />
  <circle
     style="fill:#000000;stroke:#ffffff;stroke-width:0.60237044;stroke-linecap:butt;stroke-linejoin:miter;stroke-miterlimit:4;stroke-dasharray:none"
     id="path4919"
     cx="239.50023"
     cy="135.33316"
     r="1.9075063" />
  <circle
     style="fill:#000000;stroke:#ffffff;stroke-width:0.60237044;stroke-linecap:butt;stroke-linejoin:miter;stroke-miterlimit:4;stroke-dasharray:none"
     id="path4919-1"
     cx="239.5032"
     cy="73.327492"
     r="1.9075063" />
  <circle
     style="fill:#000000;stroke:#ffffff;stroke-width:0.60237044;stroke-linecap:butt;stroke-linejoin:miter;stroke-miterlimit:4;stroke-dasharray:none"
     id="path4919-0"
     cx="57.511921"
     cy="135.32904"
     r="1.9075063" />
  <circle
     style="fill:#000000;stroke:#ffffff;stroke-width:0.60237044;stroke-linecap:butt;stroke-linejoin:miter;stroke-miterlimit:4;stroke-dasharray:none"
     id="path4919-1-9"
     cx="57.514896"
     cy="73.323387"
     r="1.9075063" />
  <circle
     style="fill:#000000;stroke:#ffffff;stroke-width:0.72045332;stroke-linecap:butt;stroke-linejoin:miter;stroke-miterlimit:4;stroke-dasharray:none"
     id="path4973"
     cx="222.36577"
     cy="115.32877"
     r="6.3039665" />
  <text
     xml:space="preserve"
     style="font-style:normal;font-weight:normal;font-size:4.93888855px;line-height:1.25;font-family:sans-serif;letter-spacing:0px;word-spacing:0px;fill:#ffffff;fill-opacity:1;stroke:none;stroke-width:0.5291667;stroke-miterlimit:4;stroke-dasharray:none;"
     x="69.982292"
     y="135.84673"
     id="text4982"><tspan
       sodipodi:role="line"
       id="tspan4980"
       x="69.982292"
       y="135.84673"
       style="fill:#ffffff;stroke-width:0.5291667;stroke-miterlimit:4;stroke-dasharray:none;">Select</tspan></text>
  <text
     xml:space="preserve"
     style="font-style:normal;font-weight:normal;font-size:4.93888855px;line-height:1.25;font-family:sans-serif;letter-spacing:0px;word-spacing:0px;fill:#ffffff;fill-opacity:1;stroke:none;stroke-width:0.52916664;stroke-miterlimit:4;stroke-dasharray:none"
     x="128.94228"
     y="122.6875"
     id="text4982-3"><tspan
       sodipodi:role="line"
       id="tspan4980-6"
       x="128.94228"
       y="122.6875"
       style="fill:#ffffff;stroke-width:0.52916664;stroke-miterlimit:4;stroke-dasharray:none">NAV1</tspan></text>
  <text
     xml:space="preserve"
     style="font-style:normal;font-weight:normal;font-size:4.93888855px;line-height:1.25;font-family:sans-serif;letter-spacing:0px;word-spacing:0px;fill:#ffffff;fill-opacity:1;stroke:none;stroke-width:0.52916664;stroke-miterlimit:4;stroke-dasharray:none;"
     x="114.02732"
     y="135.84673"
     id="text4982-3-0"><tspan
       sodipodi:role="line"
       id="tspan4980-6-6"
       x="114.02732"
       y="135.84673"
       style="fill:#ffffff;stroke-width:0.52916664;stroke-miterlimit:4;stroke-dasharray:none;">COM2</tspan></text>
  <text
     xml:space="preserve"
     style="font-style:normal;font-weight:normal;font-size:4.93888855px;line-height:1.25;font-family:sans-serif;letter-spacing:0px;word-spacing:0px;fill:#ffffff;fill-opacity:1;stroke:none;stroke-width:0.52916664;stroke-miterlimit:4;stroke-dasharray:none;"
     x="100.26434"
     y="122.61756"
     id="text4982-3-2"><tspan
       sodipodi:role="line"
       id="tspan4980-6-61"
       x="100.26434"
       y="122.61756"
       style="fill:#ffffff;stroke-width:0.52916664;stroke-miterlimit:4;stroke-dasharray:none;">COM1</tspan></text>
  <text
     xml:space="preserve"
     style="font-style:normal;font-weight:normal;font-size:4.93888855px;line-height:1.25;font-family:sans-serif;letter-spacing:0px;word-spacing:0px;fill:#ffffff;fill-opacity:1;stroke:none;stroke-width:0.52916664;stroke-miterlimit:4;stroke-dasharray:none"
     x="143.10768"
     y="135.91667"
     id="text4982-3-0-8"><tspan
       sodipodi:role="line"
       id="tspan4980-6-6-7"
       x="143.10768"
       y="135.91667"
       style="fill:#ffffff;stroke-width:0.52916664;stroke-miterlimit:4;stroke-dasharray:none">NAV2</tspan></text>
  <text
     xml:space="preserve"
     style="font-style:normal;font-weight:normal;font-size:4.93888855px;line-height:1.25;font-family:sans-serif;letter-spacing:0px;word-spacing:0px;fill:#ffffff;fill-opacity:1;stroke:none;stroke-width:0.52916664;stroke-miterlimit:4;stroke-dasharray:none;"
     x="158.45586"
     y="122.6875"
     id="text4982-3-9"><tspan
       sodipodi:role="line"
       id="tspan4980-6-2"
       x="158.45586"
       y="122.6875"
       style="fill:#ffffff;stroke-width:0.52916664;stroke-miterlimit:4;stroke-dasharray:none;">ADF1</tspan></text>
  <text
     xml:space="preserve"
     style="font-style:normal;font-weight:normal;font-size:4.93888855px;line-height:1.25;font-family:sans-serif;letter-spacing:0px;word-spacing:0px;fill:#ffffff;fill-opacity:1;stroke:none;stroke-width:0.52916664;stroke-miterlimit:4;stroke-dasharray:none;"
     x="173.02129"
     y="135.91667"
     id="text4982-3-0-8-0"><tspan
       sodipodi:role="line"
       id="tspan4980-6-6-7-2"
       x="173.02129"
       y="135.91667"
       style="fill:#ffffff;stroke-width:0.52916664;stroke-miterlimit:4;stroke-dasharray:none;">ADF2</tspan></text>
  <text
     xml:space="preserve"
     style="font-style:normal;font-weight:normal;font-size:4.93888855px;line-height:1.25;font-family:sans-serif;letter-spacing:0px;word-spacing:0px;fill:#ffffff;fill-opacity:1;stroke:none;stroke-width:0.52916664;stroke-miterlimit:4;stroke-dasharray:none"
     x="96.17395"
     y="76.315483"
     id="text4982-3-2-5"><tspan
       sodipodi:role="line"
       id="tspan4980-6-61-9"
       x="96.17395"
       y="76.315483"
       style="fill:#ffffff;stroke-width:0.52916664;stroke-miterlimit:4;stroke-dasharray:none">ACTIVE</tspan></text>
  <text
     xml:space="preserve"
     style="font-style:normal;font-weight:normal;font-size:4.93888855px;line-height:1.25;font-family:sans-serif;letter-spacing:0px;word-spacing:0px;fill:#ffffff;fill-opacity:1;stroke:none;stroke-width:0.52916664;stroke-miterlimit:4;stroke-dasharray:none"
     x="186.54347"
     y="76.315483"
     id="text4982-3-2-5-2"><tspan
       sodipodi:role="line"
       id="tspan4980-6-61-9-2"
       x="186.54347"
       y="76.315483"
       style="fill:#ffffff;stroke-width:0.52916664;stroke-miterlimit:4;stroke-dasharray:none">ACTIVE</tspan></text>
</svg>
