<?xml version="1.0" encoding="UTF-8" standalone="no"?>
<svg
   xmlns:dc="http://purl.org/dc/elements/1.1/"
   xmlns:cc="http://creativecommons.org/ns#"
   xmlns:rdf="http://www.w3.org/1999/02/22-rdf-syntax-ns#"
   xmlns:svg="http://www.w3.org/2000/svg"
   xmlns="http://www.w3.org/2000/svg"
   xmlns:sodipodi="http://sodipodi.sourceforge.net/DTD/sodipodi-0.dtd"
   xmlns:inkscape="http://www.inkscape.org/namespaces/inkscape"
   version="1.1"
   width="297mm"
   height="210mm"
   viewBox="0 0 297 210"
   id="svg4434"
   sodipodi:docname="radio_con_leds_chicos_fino.svg"
   inkscape:version="0.92.4 (unknown)">
  <metadata
     id="metadata4438">
    <rdf:RDF>
      <cc:Work
         rdf:about="">
        <dc:format>image/svg+xml</dc:format>
        <dc:type
           rdf:resource="http://purl.org/dc/dcmitype/StillImage" />
      </cc:Work>
    </rdf:RDF>
  </metadata>
  <sodipodi:namedview
     pagecolor="#ffffff"
     bordercolor="#666666"
     borderopacity="1"
     objecttolerance="10"
     gridtolerance="10"
     guidetolerance="10"
     inkscape:pageopacity="0"
     inkscape:pageshadow="2"
     inkscape:window-width="1613"
     inkscape:window-height="995"
     id="namedview4436"
     showgrid="false"
     inkscape:zoom="0.84100811"
     inkscape:cx="767.78878"
     inkscape:cy="220.58861"
     inkscape:window-x="67"
     inkscape:window-y="27"
     inkscape:window-maximized="1"
     inkscape:current-layer="svg4434" />
  <!-- Working space 0 0 297 210 -->
  <defs
     id="defs4350">
    <radialGradient
       id="radialGradient3661"
       gradientUnits="userSpaceOnUse"
       cy="29.149"
       cx="282.65"
       gradientTransform="matrix(0.14777,0.23089,-0.2468,0.15795,244.682,122.383)"
       r="19.571">
      <stop
         stop-color="#71b2f8"
         offset="0"
         id="stop4340" />
      <stop
         stop-color="#002795"
         offset="1"
         id="stop4342" />
    </radialGradient>
    <radialGradient
       id="radialGradient3817"
       gradientUnits="userSpaceOnUse"
       cy="33.9"
       cx="270.58"
       gradientTransform="matrix(0.26631,0.065024,-0.17931,0.73438,210.332,148.062)"
       r="19.571">
      <stop
         stop-color="#ff6d0f"
         offset="0"
         id="stop4345" />
      <stop
         stop-color="#ff1000"
         offset="1"
         id="stop4347" />
    </radialGradient>
  </defs>
  <!-- Set display:none to hide FreeCAD Logo -->
  <g
     id="g4538">
    <g
       transform="matrix(1,0,0,-1,142.5,159)"
       id="g4431"
       style="fill:none;stroke:#000000;stroke-width:0.1;stroke-linecap:butt;stroke-linejoin:miter">
      <path
         id="1"
         d="M -89,19 V 89"
         inkscape:connector-curvature="0" />
      <path
         id="2"
         d="M -89,89 H 101"
         inkscape:connector-curvature="0" />
      <path
         id="3"
         d="M -89,19 H 101"
         inkscape:connector-curvature="0" />
      <path
         id="4"
         d="M 101,19 V 89"
         inkscape:connector-curvature="0" />
      <path
         id="5"
         d="m -61.5,67.5 h 48"
         inkscape:connector-curvature="0" />
      <path
         id="6"
         d="m -61.5,79.5 v -12"
         inkscape:connector-curvature="0" />
      <path
         id="7"
         d="m -61.5,79.5 h 48"
         inkscape:connector-curvature="0" />
      <path
         id="8"
         d="m -13.5,79.5 v -12"
         inkscape:connector-curvature="0" />
      <path
         id="9"
         d="m 28.5,67.5 h 48"
         inkscape:connector-curvature="0" />
      <path
         id="10"
         d="m 28.5,79.5 v -12"
         inkscape:connector-curvature="0" />
      <path
         id="11"
         d="m 28.5,79.5 h 48"
         inkscape:connector-curvature="0" />
      <path
         id="12"
         d="m 76.5,79.5 v -12"
         inkscape:connector-curvature="0" />
      <circle
         cx="64.150002"
         cy="43"
         r="6.3000002"
         id="circle4369" />
      <path
         d="M -68.5,36.8 A 2.5,2.5 0 0 1 -70,36.3"
         id="path4371"
         inkscape:connector-curvature="0" />
      <path
         d="m -70,36.3 a 2.5,2.5 0 0 1 -1,-2"
         id="path4373"
         inkscape:connector-curvature="0" />
      <path
         id="16"
         d="m -61.5,36.8 h -7"
         inkscape:connector-curvature="0" />
      <path
         d="m -60,36.3 a 2.5,2.5 0 0 1 -1.5,0.5"
         id="path4376"
         inkscape:connector-curvature="0" />
      <path
         d="m -59,34.3 a 2.5,2.5 0 0 1 -1,2"
         id="path4378"
         inkscape:connector-curvature="0" />
      <path
         id="19"
         d="m -71,31.7 v 2.6"
         inkscape:connector-curvature="0" />
      <path
         d="m -70,29.7 a 2.5,2.5 0 0 1 1.5,-0.5"
         id="path4381"
         inkscape:connector-curvature="0" />
      <path
         d="m -71,31.7 a 2.5,2.5 0 0 1 1,-2"
         id="path4383"
         inkscape:connector-curvature="0" />
      <path
         id="22"
         d="m -59,31.7 v 2.6"
         inkscape:connector-curvature="0" />
      <path
         d="m -61.5,29.2 a 2.5,2.5 0 0 1 1.5,0.5"
         id="path4386"
         inkscape:connector-curvature="0" />
      <path
         d="m -60,29.7 a 2.5,2.5 0 0 1 1,2"
         id="path4388"
         inkscape:connector-curvature="0" />
      <path
         id="25"
         d="m -61.5,29.2 h -7"
         inkscape:connector-curvature="0" />
      <path
         d="M 2.5,59.8 A 2.5,2.5 0 0 1 1,59.3"
         id="path4391"
         inkscape:connector-curvature="0" />
      <path
         d="m 1,59.3 a 2.5,2.5 0 0 1 -1,-2"
         id="path4393"
         inkscape:connector-curvature="0" />
      <path
         id="28"
         d="m 9.5,59.8 h -7"
         inkscape:connector-curvature="0" />
      <path
         d="M 11,59.3 A 2.5,2.5 0 0 1 9.5,59.8"
         id="path4396"
         inkscape:connector-curvature="0" />
      <path
         d="m 12,57.3 a 2.5,2.5 0 0 1 -1,2"
         id="path4398"
         inkscape:connector-curvature="0" />
      <path
         id="31"
         d="m 0,54.7 v 2.6"
         inkscape:connector-curvature="0" />
      <path
         d="M 1,52.7 A 2.5,2.5 0 0 1 2.5,52.2"
         id="path4401"
         inkscape:connector-curvature="0" />
      <path
         d="m 0,54.7 a 2.5,2.5 0 0 1 1,-2"
         id="path4403"
         inkscape:connector-curvature="0" />
      <path
         id="34"
         d="m 12,54.7 v 2.6"
         inkscape:connector-curvature="0" />
      <path
         d="M 9.5,52.2 A 2.5,2.5 0 0 1 11,52.7"
         id="path4406"
         inkscape:connector-curvature="0" />
      <path
         d="m 11,52.7 a 2.5,2.5 0 0 1 1,2"
         id="path4408"
         inkscape:connector-curvature="0" />
      <path
         id="37"
         d="m 9.5,52.2 h -7"
         inkscape:connector-curvature="0" />
      <circle
         cx="-21.5"
         cy="33"
         r="3.5999999"
         id="circle4411" />
      <circle
         cx="23.5"
         cy="33"
         r="3.5999999"
         id="circle4413" />
      <circle
         cx="38.5"
         cy="33"
         r="3.5999999"
         id="circle4415" />
      <circle
         cx="-36.5"
         cy="33"
         r="3.5999999"
         id="circle4417" />
      <circle
         cx="-6.5"
         cy="33"
         r="3.5999999"
         id="circle4419" />
      <circle
         cx="8.5"
         cy="33"
         r="3.5999999"
         id="circle4421" />
      <circle
         cx="-85"
         cy="23"
         r="1.8"
         id="circle4423" />
      <circle
         cx="97"
         cy="23"
         r="1.8"
         id="circle4425" />
      <circle
         cx="97"
         cy="85"
         r="1.8"
         id="circle4427" />
      <circle
         cx="-85"
         cy="85"
         r="1.8"
         id="circle4429" />
    </g>
  </g>
</svg>
